PathFileType	4	(X/Y/Z)	/Users/visionmauri/4_1_1_f_Sports2D/4_1_1_f_Sports2D_px_person00.trc
DataRate	CameraRate	NumFrames	NumMarkers	Units	OrigDataRate	OrigDataStartFrame	OrigNumFrames
30.0	30.0	6	22	m	30.0	177	355
Frame#	Time	Hip			RHip			RKnee			RAnkle			RBigToe			RSmallToe			RHeel			LHip			LKnee			LAnkle			LBigToe			LSmallToe			LHeel			Neck			Head			Nose			RShoulder			RElbow			RWrist			LShoulder			LElbow			LWrist			
		X1	Y1	Z1	X2	Y2	Z2	X3	Y3	Z3	X4	Y4	Z4	X5	Y5	Z5	X6	Y6	Z6	X7	Y7	Z7	X8	Y8	Z8	X9	Y9	Z9	X10	Y10	Z10	X11	Y11	Z11	X12	Y12	Z12	X13	Y13	Z13	X14	Y14	Z14	X15	Y15	Z15	X16	Y16	Z16	X17	Y17	Z17	X18	Y18	Z18	X19	Y19	Z19	X20	Y20	Z20	X21	Y21	Z21	X22	Y22	Z22
177	5.916666666666667	558.4616373554277	849.8876383595216	0.0	510.4014490731542	842.8069049433283	0.0	519.1297772412468	1008.684835348734	0.0	476.795650412776	1226.9287556769561	0.0	535.2347024091083	1276.4439689760904	0.0	516.8937566504969	1277.8250451035344	0.0	464.11175678873064	1259.4888378578469	0.0	606.4046828642682	849.9140429947723	0.0	640.3772355708779	1027.819628708411	0.0	581.4439522121967	1203.5792716257668	0.0	643.2011367955383	1250.5392633770334	0.0	643.3701301046314	1239.5500434609166	0.0	566.115250421761	1232.2958898846357	0.0	574.7190914300269	598.0027959083966	0.0	605.9161314147813	474.38706559336856	0.0	604.8141276074471	565.0404300712202	0.0	493.0687120655363	624.4957192001091	0.0	412.2684513336192	731.8805686252357	0.0	390.42747418423545	843.8696617864634	0.0	651.3489106263203	610.3354277196445	0.0	683.2823335267383	734.6197174131154	0.0	725.7839432197351	826.0565441402911	0.0
178	5.950094161958569	559.4378754726372	850.4048666728447	0.0	510.8055614510102	844.5291002024211	0.0	519.8896565767216	1009.1586740150831	0.0	478.34009602724944	1226.7533137691803	0.0	533.6837038864	1273.6885166403704	0.0	513.1915753584083	1277.0307711917264	0.0	466.42509226893515	1260.659315061707	0.0	607.9976958525842	850.1683195637272	0.0	646.6294566154086	1027.0525940035195	0.0	584.5008508566216	1201.391158132126	0.0	646.0035897054729	1252.0118921495755	0.0	647.491112561713	1239.9553072243768	0.0	568.7258694022274	1229.4768194526723	0.0	574.4529601586923	597.2543539798688	0.0	606.4351783998133	474.4911823047399	0.0	604.453116502043	563.5883582222153	0.0	492.8278455187595	623.3389882079817	0.0	411.6219260316235	730.6618228160198	0.0	390.6069287492009	843.623493313871	0.0	652.3541075827438	610.1881825182388	0.0	683.5479713630341	734.542827980678	0.0	726.3899057276982	826.251428737214	0.0
179	5.9835216572504715	561.4433008270826	851.9580907450734	0.0	511.5994262050572	846.9620958244647	0.0	520.8722072812384	1009.9288308248013	0.0	480.6852598138243	1225.882228325509	0.0	531.4525938466728	1271.6113248154861	0.0	506.8323018853205	1278.6843294115492	0.0	467.5423440951993	1261.5190407237908	0.0	610.6179045754443	851.1416267975095	0.0	651.9947224363839	1026.3758503121437	0.0	587.8496116038926	1200.3009964255825	0.0	649.544837366128	1254.2895734002632	0.0	652.0498254266085	1241.5209075234918	0.0	571.0592943446064	1227.589622943408	0.0	575.0613305860601	596.7466349303015	0.0	607.2280091710844	474.46941936607385	0.0	605.236798154432	562.9436330665552	0.0	493.07628756107886	622.2202093041974	0.0	410.8881345762008	730.0234963818536	0.0	390.92974243182823	843.2873228886486	0.0	653.7024805774565	610.7554279761525	0.0	683.5783926909903	734.1713076809364	0.0	727.1971055803501	827.0558163324127	0.0
180	6.016949152542373	563.361865492447	854.2303544597986	0.0	512.2801823202152	850.3207225239132	0.0	521.7504099952209	1010.9196768280673	0.0	482.4870633312081	1225.0561841160943	0.0	528.4159559490116	1272.2432641139342	0.0	501.4143838423433	1280.4624254246617	0.0	468.9485804500099	1261.4112768744124	0.0	613.3947411636751	853.2949115301332	0.0	655.9842533305626	1026.6479043028478	0.0	591.9512038593848	1200.2569295856683	0.0	654.5264310643872	1256.9690845874245	0.0	657.3852642994862	1243.5993182973684	0.0	574.5899249813074	1226.9370402150662	0.0	576.2065696925134	596.7494233453967	0.0	608.2836023203382	474.34768530300613	0.0	606.8849935236145	563.2384714706469	0.0	493.9544059474809	621.5501730800553	0.0	410.77289371481936	729.5343343031301	0.0	390.9956180145147	843.4787985740178	0.0	655.3637509946692	611.4799302630896	0.0	683.6424103327864	733.5187744852814	0.0	727.7808821138327	827.5705677309057	0.0
181	6.050376647834275	564.886766136647	856.1171720851951	0.0	513.1934587164562	853.6911132996115	0.0	522.4716257309989	1013.6201263714347	0.0	482.20231752380977	1225.4691912307387	0.0	526.130048601716	1276.9792606862418	0.0	501.5504994076234	1281.4856366455344	0.0	470.7945351050172	1260.4947677948064	0.0	615.885690731455	856.0480134259478	0.0	657.7227892537551	1027.9800092513447	0.0	596.9264532382001	1201.5080460532279	0.0	661.1863115056864	1259.706951860307	0.0	664.1128580633028	1245.9465787096292	0.0	580.0737272196955	1228.0900443791452	0.0	578.0753033324266	597.1193303892314	0.0	609.6503810496156	474.3026234498231	0.0	608.1609474310046	564.1176072465324	0.0	495.7893419491484	621.0069809643828	0.0	411.770433351282	728.6663958673815	0.0	390.85978034989176	843.9470596679255	0.0	657.5175320882778	611.9606098703301	0.0	684.1421138060201	733.1044755574449	0.0	727.6610292394244	826.7278234479613	0.0
182	6.083804143126177	566.746826880713	856.8926965749519	0.0	515.0397680117827	855.1655087317185	0.0	523.0972434480808	1016.546033106	0.0	480.2130412747251	1227.6380010612502	0.0	526.0752980992191	1283.8869431150604	0.0	505.83275023271995	1284.0608072540178	0.0	471.8741459629725	1260.3558006179337	0.0	618.2967839149225	857.8359930493921	0.0	657.50738185391	1030.0131201606669	0.0	602.5801547620525	1204.3876284226508	0.0	667.8688790817878	1262.9077532155602	0.0	671.5683663943904	1249.4391522587714	0.0	586.4109330676148	1231.1511464258465	0.0	580.5251532346418	597.5124707341196	0.0	611.8340851024486	474.3049489848213	0.0	610.0900117441797	565.4021954566484	0.0	497.7899510293885	620.5459011543489	0.0	413.34169910527356	727.8786273484948	0.0	391.0321254844588	844.2762563944698	0.0	659.71190117986	612.2906917791789	0.0	685.2703340271746	733.1920140408579	0.0	727.2554196960133	825.1202572047174	0.0
